<svg width="64" height="66" viewBox="0 0 64 66" fill="none" xmlns="http://www.w3.org/2000/svg">
<path d="M46.6749 49.491L31.5962 34.4124L16.5176 49.491L31.5962 64.5697L46.6749 49.491Z" fill="#B9FF9E"/>
<path d="M63.1163 32.6243L48.0377 17.5457L32.959 32.6243L48.0377 47.703L63.1163 32.6243Z" fill="#DAAC74"/>
<path d="M30.1464 32.6897L15.0678 17.6111L0 32.6897L15.0787 47.7684L30.1573 32.6897H30.1464Z" fill="#4453FF"/>
<path d="M46.589 15.8121L31.5103 0.744385L16.4316 15.8231L31.5103 30.9017L46.589 15.8231V15.8121Z" fill="#90FFC8"/>
<path d="M14.5765 48.259C14.6419 48.1609 14.6964 48.0409 14.7836 47.9537C16.1029 46.6236 17.4221 45.3043 18.7414 43.9633C19.7772 42.9166 20.802 41.8481 21.8378 40.7905C22.1213 40.4962 22.4157 40.2127 22.71 39.951C22.8627 39.8093 22.9172 39.6566 22.9172 39.4604C22.9172 37.3125 22.9172 35.1647 22.9172 33.0168C22.9172 31.8938 22.9172 30.7817 22.8954 29.6587C22.8954 29.2008 22.83 28.7429 22.7864 28.285C22.7536 27.9143 22.601 27.7616 22.2303 27.7289C21.9468 27.6962 21.6634 27.6853 21.3908 27.6526C21.2381 27.6417 21.0855 27.609 20.922 27.5872V26.6277H23.0698C20.3005 23.7385 17.553 20.871 14.7836 17.9817C14.9908 17.7855 15.1652 17.611 15.3833 17.4148C18.3271 20.4894 21.2709 23.564 24.2037 26.6277C24.8906 26.6277 25.5666 26.6277 26.2535 26.6277C26.3625 26.6277 26.4824 26.6277 26.5915 26.6386C26.7005 26.8785 26.7986 27.1183 26.9076 27.3582C27.5073 28.6775 28.1069 29.9967 28.7066 31.316C28.7284 31.3487 28.7393 31.3923 28.7611 31.425C29.1318 31.7957 29.5025 32.1555 29.8732 32.5262C30.0913 32.7442 30.2984 32.9841 30.5165 33.213C30.3093 33.4311 30.124 33.6383 29.9168 33.8563C30.1676 34.3688 30.4184 34.8703 30.6582 35.3718C31.127 36.3749 31.6068 37.3779 32.0974 38.4246C32.4354 37.7377 32.7407 37.1272 33.0459 36.4839C32.9805 36.4185 32.9042 36.3749 32.8497 36.3095C32.3373 35.7861 31.8248 35.2628 31.3124 34.7504C31.4977 34.5541 31.694 34.3688 31.8793 34.1616C32.4136 34.6849 32.9151 35.1865 33.4385 35.6989C33.6456 35.2519 33.8419 34.8267 34.0381 34.4015C34.5069 33.4093 34.9758 32.428 35.4446 31.4359C35.7499 30.7817 36.0442 30.1275 36.3495 29.4734C36.7747 28.5248 37.1999 27.5763 37.6251 26.6386H42.9457C43.0221 26.9221 42.9785 27.2383 42.9676 27.5763C42.8149 27.5981 42.6841 27.6199 42.5532 27.6308C42.3025 27.6526 42.0517 27.6635 41.8009 27.6962C41.2449 27.7616 41.125 27.8706 41.0814 28.4049C41.0268 29.0809 40.9723 29.7568 40.9723 30.4328C40.9723 33.551 40.9723 36.6693 40.9941 39.7875C40.9941 40.3217 41.0377 40.8451 41.0923 41.3793C41.1359 41.8045 41.2994 41.9353 41.7246 41.9681C42.0299 41.9899 42.3243 42.0117 42.6296 42.0444C42.7386 42.0444 42.8476 42.088 42.9567 42.1098V43.0692C42.8367 43.0692 42.7386 43.0801 42.6296 43.0801C41.9972 43.0583 41.3539 43.0365 40.7216 43.0147C41.2885 43.6689 41.8555 44.2686 42.4333 44.8464C43.5563 45.9912 44.6793 47.1251 45.8023 48.2699C46.3474 48.8151 46.8926 49.3602 47.4377 49.9053C47.4704 49.949 47.4922 49.9926 47.525 50.0253C46.9907 50.5595 46.4783 51.1047 45.944 51.6389C45.1045 52.4675 44.2541 53.2961 43.4146 54.1248C41.5611 55.9455 39.6967 57.7772 37.8432 59.598C36.3931 61.0263 34.943 62.4654 33.4821 63.8937C32.926 64.4389 32.3591 64.9949 31.803 65.5401C31.7703 65.5728 31.7376 65.6164 31.7049 65.66H31.5741C31.3996 65.4746 31.2361 65.2893 31.0616 65.093C31.4541 64.7005 31.8466 64.308 32.25 63.9264C33.1986 62.9888 34.158 62.0511 35.1066 61.1135C35.4882 60.7428 35.8589 60.3721 36.2405 60.0014C37.0364 59.2164 37.8323 58.4205 38.6282 57.6355C39.1079 57.1666 39.5877 56.7087 40.0674 56.229C40.7761 55.5203 41.4739 54.7898 42.1935 54.0811C42.6187 53.6668 43.0548 53.2634 43.4909 52.8491C43.9706 52.3803 44.4503 51.9224 44.9301 51.4426C45.3989 50.9738 45.8677 50.4941 46.3474 50.0144C44.0469 47.6812 41.7464 45.3479 39.4895 43.0474H35.5863C35.5863 42.8076 35.5863 42.5677 35.5863 42.3278C35.5863 42.1316 35.6735 42.0444 35.8698 42.0335C36.1969 42.0117 36.5131 41.9899 36.8401 41.9681C37.2872 41.9353 37.4398 41.7718 37.4834 41.3248C37.4834 41.2267 37.4943 41.1394 37.5052 41.0304C36.3604 39.8638 35.2047 38.6972 34.0381 37.5088C33.9836 37.6287 33.9291 37.7159 33.8855 37.8141C33.3403 39.0134 32.7843 40.2018 32.25 41.4011C32.1846 41.5428 32.1519 41.6955 32.1083 41.8154C32.032 41.9244 31.9666 42.0117 31.9121 42.0989C31.7921 42.3606 31.6831 42.6222 31.5632 42.8839C31.4323 43.1892 31.2034 43.3418 30.8763 43.3418C30.8 43.3418 30.7127 43.3418 30.6146 43.3309C30.5056 43.091 30.4075 42.8512 30.3093 42.6222C29.9822 41.8808 29.6552 41.1285 29.3063 40.3871C28.9138 39.5585 28.5104 38.7299 28.1179 37.9013C27.878 37.3888 27.649 36.8764 27.4092 36.364C26.3516 37.4107 25.3267 38.4246 24.2582 39.4822C24.3237 40.1473 24.3782 40.8451 24.4436 41.5319C24.4981 41.8263 24.7162 41.9353 24.9887 41.9571C25.3049 41.9899 25.6102 42.0008 25.9264 42.0335C26.0572 42.0444 26.1771 42.088 26.2971 42.1207V43.0256C26.1771 43.0365 26.0681 43.0583 25.9482 43.0583C24.8906 43.0583 23.8439 43.0474 22.7864 43.0365C22.2848 43.0365 21.7833 43.0474 21.2818 43.0583C21.1291 43.0583 20.9765 43.0365 20.7693 43.0147C19.9843 43.8106 19.1775 44.6502 18.3489 45.4897C17.6947 46.1548 17.0296 46.8307 16.3646 47.4958C15.9394 47.921 15.5032 48.3462 15.0671 48.7605L14.5547 48.2372L14.5765 48.259ZM37.6142 38.0212C37.6142 38.0212 37.6142 37.9122 37.6142 37.8686C37.6142 35.3609 37.6142 32.8424 37.6142 30.3347C37.6142 30.2911 37.6142 30.2584 37.5924 30.1493C37.2108 30.9234 36.862 31.643 36.524 32.3517C36.0224 33.3875 35.5209 34.4233 35.0194 35.4481C34.8122 35.8624 34.6051 36.2877 34.387 36.7456C35.4664 37.7814 36.5349 38.8171 37.6142 39.8529V38.0212ZM24.3237 38.2284C25.2177 37.3343 26.1008 36.4621 27.0167 35.5463C26.1335 33.7255 25.2395 31.8611 24.3237 29.9422V38.2284ZM22.8082 41.1394C22.5356 41.4011 22.1976 41.7282 21.8923 42.0226C22.7318 41.9353 22.7536 41.9135 22.8082 41.1394Z" fill="black"/>
<path d="M16.9534 29.3426C16.8117 28.9828 16.5827 28.6994 16.2775 28.4377C15.5361 27.8053 14.6747 27.8162 13.7916 27.8707C13.5081 27.8926 13.2356 27.9471 12.9194 27.9907C12.8976 28.6558 12.8649 29.299 12.8649 29.9423C12.8649 33.235 12.8649 36.5385 12.8758 39.8312C12.8758 40.409 12.9739 40.9869 13.0502 41.5538C13.072 41.6847 13.1592 41.8046 13.181 41.87C13.857 42.0663 14.5112 41.9791 15.1217 42.1426C15.1217 42.4152 15.1217 42.6223 15.1217 42.8295C15.1217 43.0584 15.0454 43.102 14.8056 43.102C13.0284 43.0911 11.2512 43.0802 9.47406 43.0693C8.81989 43.0366 8.15481 43.113 7.47884 43.102V42.1862C7.7187 41.9463 8.06759 42.1099 8.35107 42.0227C8.4928 42.0118 8.64544 42.0009 8.78718 41.99C9.12517 41.9572 9.2451 41.8264 9.28871 41.4666C9.34323 41.0523 9.45226 40.6271 9.45226 40.2128C9.48496 37.0728 9.50677 33.9327 9.49587 30.7927C9.49587 29.9423 9.40864 29.081 9.34323 28.2305C9.31052 27.8926 9.14698 27.7617 8.80899 27.729C8.4819 27.6963 8.14391 27.6854 7.80592 27.6527C7.50064 27.62 7.45703 27.5764 7.45703 27.2602C7.45703 27.1512 7.45703 27.053 7.45703 26.944C7.45703 26.6496 7.52245 26.5951 7.80592 26.606C8.55822 26.6278 9.31052 26.6605 10.0628 26.6605C11.611 26.6605 13.1592 26.6387 14.7074 26.6387C15.4924 26.6387 16.2775 26.6169 17.0516 26.6605C17.7602 26.6932 18.458 26.8568 19.0904 27.2057C20.1371 27.7726 20.5732 28.6994 20.6277 29.8333C20.6713 30.6183 20.6277 31.4033 20.3769 32.1556C20.3551 32.2101 20.3333 32.2646 20.3115 32.3191C20.148 32.6026 20.0171 32.9079 19.81 33.1695C18.7633 34.5106 17.3786 35.2193 15.6778 35.3392C15.0781 35.3828 14.4894 35.3174 13.9006 35.1975C13.857 35.1102 13.8134 35.0121 13.7698 34.9249C13.6826 34.7177 13.6062 34.5106 13.519 34.2925C13.5408 34.2598 13.5626 34.238 13.5844 34.2053C13.5844 34.2053 13.6717 34.129 13.7153 34.0854C13.8352 34.1181 13.9551 34.1508 14.0751 34.1726C15.0672 34.3907 16.0921 34.0854 16.7027 33.1586C16.9861 32.7225 17.1388 32.2319 17.1824 31.7195C17.2478 31.0544 17.2587 30.3893 17.0297 29.7351C16.9861 29.6043 16.9425 29.4844 16.8989 29.3535L16.9534 29.3426Z" fill="black"/>
<path d="M46.0089 14.9617C45.3983 14.3402 44.7768 13.7079 44.1663 13.0864C40.0886 8.93241 36 4.78932 31.9006 0.613525C31.6934 0.842486 31.519 1.04964 31.3336 1.2677C31.3554 1.2677 31.3772 1.2786 31.3881 1.30041C32.5874 2.52153 33.7977 3.74265 34.997 4.97467C35.2695 5.25815 35.5639 5.53072 35.8038 5.8578C36.0437 6.17399 36.4034 6.39204 36.6869 6.68642C37.3956 7.39511 38.1043 8.1147 38.8021 8.83429C39.4126 9.45575 40.0014 10.0881 40.612 10.7096C41.0154 11.1239 41.4406 11.5164 41.844 11.9307C42.4763 12.574 43.0978 13.239 43.7302 13.8823C44.3734 14.5365 45.0276 15.1798 45.6818 15.8339C45.9107 16.0629 46.1615 16.27 46.4668 16.5535C46.2923 16.6953 46.1506 16.7716 46.0416 16.8806C44.6569 18.2435 43.2613 19.6063 41.8767 20.9801C41.3861 21.4598 40.8954 21.9504 40.4048 22.4302C39.9142 22.9099 39.4126 23.3896 38.922 23.8693C38.4859 24.2946 38.0498 24.7307 37.6137 25.1668C35.9564 26.8022 34.2883 28.4485 32.6311 30.084C32.1295 30.5855 31.6062 31.0652 31.0938 31.5668C31.2682 31.7739 31.4426 31.9702 31.6389 32.1991C31.7915 32.0574 31.9333 31.9375 32.0641 31.8066C33.2634 30.6182 34.4518 29.4407 35.6511 28.2523C38.2787 25.6683 40.8954 23.0843 43.523 20.5113C44.8096 19.2465 46.0961 17.9709 47.3935 16.7062C47.4262 16.6734 47.459 16.6516 47.4917 16.6298C47.5135 16.5862 47.5353 16.5426 47.568 16.4881L46.0198 14.9399V14.9617H46.0089Z" fill="black"/>
<path d="M44.1662 13.0854L44.1562 13.0754L44.1662 13.0854Z" fill="black"/>
<path d="M57.4813 39.9511C57.6667 39.7658 57.8411 39.5913 58.0265 39.3951L58.19 39.2315C58.19 39.2315 58.1791 39.2206 58.1682 39.2097C58.4408 38.9481 58.7352 38.6973 58.9968 38.4356C60.665 36.7675 62.3331 35.0993 64.0012 33.4421C63.9358 33.3658 63.8922 33.2677 63.8159 33.2022C61.8098 31.1634 59.8145 29.1355 57.8084 27.0966C55.9331 25.1995 54.0687 23.2915 52.2043 21.3944C51.4084 20.5876 50.6234 19.7808 49.8384 18.974C49.3587 18.4834 48.8572 18.0037 48.3665 17.5239C48.203 17.6875 48.0394 17.8401 47.8759 18.0146C47.8432 18.0582 47.8323 18.1236 47.8105 18.1781C48.2357 18.6033 48.6718 19.0285 49.097 19.4646C49.5331 19.9117 49.9475 20.3805 50.3945 20.8275C50.9832 21.4163 51.5829 21.9941 52.1716 22.5829C52.357 22.7682 52.5205 22.9972 52.7059 23.1825C52.8149 23.3024 52.9675 23.3897 53.0766 23.5096C53.4146 23.8367 53.7416 24.1747 54.0687 24.5127C54.3522 24.807 54.6248 25.1014 54.9083 25.3958C55.1808 25.6793 55.4534 25.9627 55.726 26.2462C56.0422 26.5515 56.3583 26.8568 56.6745 27.1621C57.0343 27.511 57.3832 27.8707 57.7321 28.2305C58.528 29.0374 59.3239 29.8333 60.1198 30.6401C60.3052 30.8254 60.4687 31.0217 60.6432 31.1961C61.003 31.5668 61.3737 31.9266 61.7444 32.2973C62.1041 32.6571 62.4639 33.0278 62.7692 33.344C60.4796 35.6336 58.2118 37.9014 55.9767 40.1365C56.0094 39.853 56.0422 39.4823 56.0858 39.1334C55.7042 38.9372 55.5733 38.9372 55.1263 39.0898C54.941 39.8312 54.9192 40.6162 54.6248 41.314C53.6871 41.6738 52.7495 41.652 51.8118 41.6629C50.787 41.6847 49.7621 41.6629 48.6936 41.6629C48.6282 39.515 48.6718 37.3671 48.65 35.1975C48.8354 35.1757 48.9989 35.143 49.1733 35.143C50.002 35.143 50.8306 35.1539 51.6483 35.1866C51.9427 35.1975 52.2371 35.2629 52.5314 35.3283C52.7604 35.3828 52.9239 35.5246 52.9457 35.7753C52.9784 36.1133 53.0003 36.4622 53.033 36.8002C53.0439 36.931 53.0657 37.0619 53.0766 37.1818H54.036V32.0902C53.7635 31.9702 53.48 32.0465 53.142 32.0247C53.1202 32.1774 53.0875 32.3191 53.0657 32.4609C53.0221 32.8097 52.9784 33.1695 52.9348 33.5184C52.913 33.6929 52.7931 33.791 52.6187 33.8128C52.466 33.8346 52.3025 33.8673 52.1498 33.8673C51.1032 33.8673 50.0565 33.8673 49.0098 33.8673C48.9008 33.8673 48.7808 33.8455 48.6282 33.8346C48.65 31.9048 48.5628 29.9968 48.7481 28.0452C49.1297 28.0234 49.4895 28.0125 49.8493 27.9907C50.9178 27.9253 51.9863 27.9907 53.0439 28.0888C53.2728 28.1106 53.4909 28.1651 53.7089 28.1978C53.9706 28.2305 54.0905 28.405 54.1123 28.6448C54.1451 29.0483 54.1669 29.4626 54.1887 29.866C54.1887 29.975 54.2105 30.084 54.2323 30.2367C54.4721 30.2367 54.6902 30.2367 54.9083 30.2367C55.0718 30.2367 55.1045 30.1276 55.1263 29.9859C55.1808 29.3099 55.2462 28.6339 55.3117 27.958C55.3335 27.6745 55.3771 27.4019 55.4098 27.1184C55.4207 26.9658 55.4316 26.8132 55.4425 26.6278C55.3117 26.6278 55.2135 26.606 55.1045 26.606C52.0844 26.6278 49.0752 26.6496 46.0551 26.6714C45.2374 26.6714 44.4197 26.6387 43.6129 26.606C43.2858 26.606 43.2531 26.6278 43.2422 26.9549C43.2422 27.1512 43.2422 27.3474 43.2422 27.5655C43.3512 27.5982 43.4384 27.6309 43.5257 27.6418C43.8091 27.6745 44.1035 27.6963 44.387 27.7072C44.9103 27.729 45.0957 27.8489 45.1393 28.3723C45.2047 29.2118 45.2592 30.0622 45.2592 30.9126C45.2701 33.2677 45.2592 35.6227 45.2592 37.9777C45.2592 39.1007 45.2047 40.2128 45.1938 41.3358C45.1938 41.7065 45.063 41.9791 44.725 42.1535C44.5832 42.2298 44.4415 42.3388 44.3107 42.4261C44.1471 42.546 44.049 42.8077 44.1471 42.9712C44.1907 43.0366 44.3107 43.0911 44.3979 43.0911C47.2872 43.0911 50.1764 43.0911 53.0875 43.0911C53.033 43.1566 52.9894 43.222 52.9348 43.2765C52.128 44.0724 51.2994 44.8683 50.5035 45.6751C49.6204 46.5583 48.759 47.4414 47.8868 48.3354C47.8541 48.3681 47.8214 48.379 47.7887 48.4117C47.7451 48.4772 47.6906 48.5426 47.636 48.6189C47.8214 48.8152 47.9958 49.0005 48.1703 49.1859C48.2248 49.1531 48.2793 49.1313 48.3229 49.0877C48.5519 48.8588 48.7808 48.6298 49.0098 48.4008C50.7216 46.6891 52.4224 44.9882 54.1342 43.2656C54.2759 43.1239 54.4176 43.0584 54.6248 43.0802C54.941 43.113 55.2571 43.1021 55.5624 43.0911C55.6387 43.0911 55.7151 43.0584 55.8459 43.0257C55.8459 42.5787 55.8459 42.1535 55.8459 41.7283C55.8459 41.6302 55.8895 41.5211 55.9549 41.4557C56.4347 40.9542 56.9253 40.4527 57.4377 39.9402L57.4813 39.9511Z" fill="black"/>
<path d="M57.4707 39.9612L57.4807 39.9512L57.4707 39.9612Z" fill="black"/>
</svg>
